<mxfile host="app.diagrams.net" modified="2023-08-27T06:45:15.980Z" agent="Mozilla/5.0 (Macintosh; Intel Mac OS X 10_15_7) AppleWebKit/537.36 (KHTML, like Gecko) Chrome/116.0.0.0 Safari/537.36" etag="3QxAWsflwEZDaznKNpdY" version="21.6.9" type="github">
  <diagram name="Page-1" id="e7e014a7-5840-1c2e-5031-d8a46d1fe8dd">
    <mxGraphModel dx="1483" dy="790" grid="1" gridSize="10" guides="1" tooltips="1" connect="1" arrows="1" fold="1" page="1" pageScale="1" pageWidth="1169" pageHeight="826" background="none" math="0" shadow="0">
      <root>
        <mxCell id="0" />
        <mxCell id="1" parent="0" />
        <mxCell id="2" value="Main Menu / Signup" style="swimlane;whiteSpace=wrap" parent="1" vertex="1">
          <mxGeometry x="150" y="70" width="760" height="1030" as="geometry" />
        </mxCell>
        <mxCell id="745T6tJbFyd0ASZvF1Uq-50" style="edgeStyle=orthogonalEdgeStyle;rounded=0;orthogonalLoop=1;jettySize=auto;html=1;exitX=0.5;exitY=1;exitDx=0;exitDy=0;" edge="1" parent="2" source="5" target="7">
          <mxGeometry relative="1" as="geometry" />
        </mxCell>
        <mxCell id="5" value="" style="ellipse;shape=startState;fillColor=#000000;strokeColor=#ff0000;" parent="2" vertex="1">
          <mxGeometry x="100" y="40" width="30" height="30" as="geometry" />
        </mxCell>
        <mxCell id="745T6tJbFyd0ASZvF1Uq-48" style="edgeStyle=orthogonalEdgeStyle;rounded=0;orthogonalLoop=1;jettySize=auto;html=1;exitX=0;exitY=0.5;exitDx=0;exitDy=0;" edge="1" parent="2" source="7" target="10">
          <mxGeometry relative="1" as="geometry">
            <Array as="points">
              <mxPoint x="40" y="135" />
            </Array>
          </mxGeometry>
        </mxCell>
        <mxCell id="745T6tJbFyd0ASZvF1Uq-409" value="User enters 3" style="edgeLabel;html=1;align=center;verticalAlign=middle;resizable=0;points=[];" vertex="1" connectable="0" parent="745T6tJbFyd0ASZvF1Uq-48">
          <mxGeometry x="-0.0904" relative="1" as="geometry">
            <mxPoint as="offset" />
          </mxGeometry>
        </mxCell>
        <mxCell id="745T6tJbFyd0ASZvF1Uq-278" value="" style="edgeStyle=orthogonalEdgeStyle;rounded=0;orthogonalLoop=1;jettySize=auto;html=1;" edge="1" parent="2" source="7" target="745T6tJbFyd0ASZvF1Uq-46">
          <mxGeometry relative="1" as="geometry" />
        </mxCell>
        <mxCell id="745T6tJbFyd0ASZvF1Uq-408" value="User enters 2" style="edgeLabel;html=1;align=center;verticalAlign=middle;resizable=0;points=[];" vertex="1" connectable="0" parent="745T6tJbFyd0ASZvF1Uq-278">
          <mxGeometry x="0.0824" y="1" relative="1" as="geometry">
            <mxPoint as="offset" />
          </mxGeometry>
        </mxCell>
        <mxCell id="7" value="Main Menu" style="rounded=1;" parent="2" vertex="1">
          <mxGeometry x="60" y="110" width="110" height="50" as="geometry" />
        </mxCell>
        <mxCell id="745T6tJbFyd0ASZvF1Uq-412" value="" style="edgeStyle=orthogonalEdgeStyle;rounded=0;orthogonalLoop=1;jettySize=auto;html=1;" edge="1" parent="2" source="10" target="745T6tJbFyd0ASZvF1Uq-411">
          <mxGeometry relative="1" as="geometry" />
        </mxCell>
        <mxCell id="10" value="Quit" style="rounded=1;" parent="2" vertex="1">
          <mxGeometry x="10" y="480" width="110" height="50" as="geometry" />
        </mxCell>
        <mxCell id="745T6tJbFyd0ASZvF1Uq-52" value="" style="edgeStyle=orthogonalEdgeStyle;rounded=0;orthogonalLoop=1;jettySize=auto;html=1;" edge="1" parent="2" source="745T6tJbFyd0ASZvF1Uq-46" target="745T6tJbFyd0ASZvF1Uq-51">
          <mxGeometry relative="1" as="geometry" />
        </mxCell>
        <mxCell id="745T6tJbFyd0ASZvF1Uq-46" value="Signup" style="rounded=1;" vertex="1" parent="2">
          <mxGeometry x="60" y="197.5" width="110" height="50" as="geometry" />
        </mxCell>
        <mxCell id="745T6tJbFyd0ASZvF1Uq-56" value="" style="edgeStyle=orthogonalEdgeStyle;rounded=0;orthogonalLoop=1;jettySize=auto;html=1;" edge="1" parent="2" source="745T6tJbFyd0ASZvF1Uq-51" target="745T6tJbFyd0ASZvF1Uq-55">
          <mxGeometry relative="1" as="geometry" />
        </mxCell>
        <mxCell id="745T6tJbFyd0ASZvF1Uq-51" value="First Name" style="rounded=1;" vertex="1" parent="2">
          <mxGeometry x="215" y="210" width="80" height="25" as="geometry" />
        </mxCell>
        <mxCell id="745T6tJbFyd0ASZvF1Uq-61" style="edgeStyle=orthogonalEdgeStyle;rounded=0;orthogonalLoop=1;jettySize=auto;html=1;exitX=1;exitY=0.5;exitDx=0;exitDy=0;entryX=1;entryY=0.5;entryDx=0;entryDy=0;" edge="1" parent="2" source="745T6tJbFyd0ASZvF1Uq-55" target="745T6tJbFyd0ASZvF1Uq-51">
          <mxGeometry relative="1" as="geometry">
            <Array as="points">
              <mxPoint x="310" y="285" />
              <mxPoint x="310" y="223" />
            </Array>
          </mxGeometry>
        </mxCell>
        <mxCell id="745T6tJbFyd0ASZvF1Uq-183" value="Invalid" style="edgeLabel;html=1;align=center;verticalAlign=middle;resizable=0;points=[];" vertex="1" connectable="0" parent="745T6tJbFyd0ASZvF1Uq-61">
          <mxGeometry x="-0.2379" relative="1" as="geometry">
            <mxPoint as="offset" />
          </mxGeometry>
        </mxCell>
        <mxCell id="745T6tJbFyd0ASZvF1Uq-55" value="" style="rhombus;whiteSpace=wrap;html=1;" vertex="1" parent="2">
          <mxGeometry x="241.25" y="274.38" width="27.5" height="21.25" as="geometry" />
        </mxCell>
        <mxCell id="745T6tJbFyd0ASZvF1Uq-60" value="" style="edgeStyle=orthogonalEdgeStyle;rounded=0;orthogonalLoop=1;jettySize=auto;html=1;" edge="1" parent="2" source="745T6tJbFyd0ASZvF1Uq-55">
          <mxGeometry relative="1" as="geometry">
            <mxPoint x="405" y="376" as="sourcePoint" />
            <mxPoint x="255.10000000000002" y="333" as="targetPoint" />
            <Array as="points">
              <mxPoint x="255" y="314" />
              <mxPoint x="255" y="314" />
            </Array>
          </mxGeometry>
        </mxCell>
        <mxCell id="745T6tJbFyd0ASZvF1Uq-191" value="Valid" style="edgeLabel;html=1;align=center;verticalAlign=middle;resizable=0;points=[];" vertex="1" connectable="0" parent="745T6tJbFyd0ASZvF1Uq-60">
          <mxGeometry x="-0.0682" y="1" relative="1" as="geometry">
            <mxPoint as="offset" />
          </mxGeometry>
        </mxCell>
        <mxCell id="745T6tJbFyd0ASZvF1Uq-106" value="Last Name" style="rounded=1;" vertex="1" parent="2">
          <mxGeometry x="215" y="330" width="80" height="25" as="geometry" />
        </mxCell>
        <mxCell id="745T6tJbFyd0ASZvF1Uq-107" style="edgeStyle=orthogonalEdgeStyle;rounded=0;orthogonalLoop=1;jettySize=auto;html=1;exitX=1;exitY=0.5;exitDx=0;exitDy=0;entryX=1;entryY=0.5;entryDx=0;entryDy=0;" edge="1" parent="2" source="745T6tJbFyd0ASZvF1Uq-108" target="745T6tJbFyd0ASZvF1Uq-106">
          <mxGeometry relative="1" as="geometry">
            <Array as="points">
              <mxPoint x="310" y="405" />
              <mxPoint x="310" y="343" />
            </Array>
          </mxGeometry>
        </mxCell>
        <mxCell id="745T6tJbFyd0ASZvF1Uq-184" value="Invalid" style="edgeLabel;html=1;align=center;verticalAlign=middle;resizable=0;points=[];" vertex="1" connectable="0" parent="745T6tJbFyd0ASZvF1Uq-107">
          <mxGeometry x="-0.3053" y="-2" relative="1" as="geometry">
            <mxPoint y="1" as="offset" />
          </mxGeometry>
        </mxCell>
        <mxCell id="745T6tJbFyd0ASZvF1Uq-108" value="" style="rhombus;whiteSpace=wrap;html=1;" vertex="1" parent="2">
          <mxGeometry x="241.25" y="394.38" width="27.5" height="21.25" as="geometry" />
        </mxCell>
        <mxCell id="745T6tJbFyd0ASZvF1Uq-105" value="" style="edgeStyle=orthogonalEdgeStyle;rounded=0;orthogonalLoop=1;jettySize=auto;html=1;" edge="1" parent="2" source="745T6tJbFyd0ASZvF1Uq-106" target="745T6tJbFyd0ASZvF1Uq-108">
          <mxGeometry relative="1" as="geometry" />
        </mxCell>
        <mxCell id="745T6tJbFyd0ASZvF1Uq-109" value="" style="edgeStyle=orthogonalEdgeStyle;rounded=0;orthogonalLoop=1;jettySize=auto;html=1;" edge="1" parent="2" source="745T6tJbFyd0ASZvF1Uq-108">
          <mxGeometry relative="1" as="geometry">
            <mxPoint x="405" y="496" as="sourcePoint" />
            <mxPoint x="255.10000000000002" y="453" as="targetPoint" />
            <Array as="points">
              <mxPoint x="255" y="434" />
              <mxPoint x="255" y="434" />
            </Array>
          </mxGeometry>
        </mxCell>
        <mxCell id="745T6tJbFyd0ASZvF1Uq-192" value="Valid" style="edgeLabel;html=1;align=center;verticalAlign=middle;resizable=0;points=[];" vertex="1" connectable="0" parent="745T6tJbFyd0ASZvF1Uq-109">
          <mxGeometry x="-0.0682" y="2" relative="1" as="geometry">
            <mxPoint as="offset" />
          </mxGeometry>
        </mxCell>
        <mxCell id="745T6tJbFyd0ASZvF1Uq-113" value="Username" style="rounded=1;" vertex="1" parent="2">
          <mxGeometry x="215" y="450" width="80" height="25" as="geometry" />
        </mxCell>
        <mxCell id="745T6tJbFyd0ASZvF1Uq-114" style="edgeStyle=orthogonalEdgeStyle;rounded=0;orthogonalLoop=1;jettySize=auto;html=1;exitX=1;exitY=0.5;exitDx=0;exitDy=0;entryX=1;entryY=0.5;entryDx=0;entryDy=0;" edge="1" parent="2" source="745T6tJbFyd0ASZvF1Uq-115" target="745T6tJbFyd0ASZvF1Uq-113">
          <mxGeometry relative="1" as="geometry">
            <Array as="points">
              <mxPoint x="310" y="525" />
              <mxPoint x="310" y="463" />
            </Array>
          </mxGeometry>
        </mxCell>
        <mxCell id="745T6tJbFyd0ASZvF1Uq-185" value="Invalid" style="edgeLabel;html=1;align=center;verticalAlign=middle;resizable=0;points=[];" vertex="1" connectable="0" parent="745T6tJbFyd0ASZvF1Uq-114">
          <mxGeometry x="-0.3558" y="-1" relative="1" as="geometry">
            <mxPoint as="offset" />
          </mxGeometry>
        </mxCell>
        <mxCell id="745T6tJbFyd0ASZvF1Uq-115" value="" style="rhombus;whiteSpace=wrap;html=1;" vertex="1" parent="2">
          <mxGeometry x="241.25" y="514.38" width="27.5" height="21.25" as="geometry" />
        </mxCell>
        <mxCell id="745T6tJbFyd0ASZvF1Uq-112" value="" style="edgeStyle=orthogonalEdgeStyle;rounded=0;orthogonalLoop=1;jettySize=auto;html=1;" edge="1" parent="2" source="745T6tJbFyd0ASZvF1Uq-113" target="745T6tJbFyd0ASZvF1Uq-115">
          <mxGeometry relative="1" as="geometry" />
        </mxCell>
        <mxCell id="745T6tJbFyd0ASZvF1Uq-116" value="" style="edgeStyle=orthogonalEdgeStyle;rounded=0;orthogonalLoop=1;jettySize=auto;html=1;" edge="1" parent="2" source="745T6tJbFyd0ASZvF1Uq-115">
          <mxGeometry relative="1" as="geometry">
            <mxPoint x="405" y="616" as="sourcePoint" />
            <mxPoint x="255.10000000000002" y="573" as="targetPoint" />
            <Array as="points">
              <mxPoint x="255" y="554" />
              <mxPoint x="255" y="554" />
            </Array>
          </mxGeometry>
        </mxCell>
        <mxCell id="745T6tJbFyd0ASZvF1Uq-193" value="Valid" style="edgeLabel;html=1;align=center;verticalAlign=middle;resizable=0;points=[];" vertex="1" connectable="0" parent="745T6tJbFyd0ASZvF1Uq-116">
          <mxGeometry x="0.0386" y="1" relative="1" as="geometry">
            <mxPoint as="offset" />
          </mxGeometry>
        </mxCell>
        <mxCell id="745T6tJbFyd0ASZvF1Uq-120" value="Email" style="rounded=1;" vertex="1" parent="2">
          <mxGeometry x="215" y="570" width="80" height="25" as="geometry" />
        </mxCell>
        <mxCell id="745T6tJbFyd0ASZvF1Uq-121" style="edgeStyle=orthogonalEdgeStyle;rounded=0;orthogonalLoop=1;jettySize=auto;html=1;exitX=1;exitY=0.5;exitDx=0;exitDy=0;entryX=1;entryY=0.5;entryDx=0;entryDy=0;" edge="1" parent="2" source="745T6tJbFyd0ASZvF1Uq-122" target="745T6tJbFyd0ASZvF1Uq-120">
          <mxGeometry relative="1" as="geometry">
            <Array as="points">
              <mxPoint x="310" y="645" />
              <mxPoint x="310" y="583" />
            </Array>
          </mxGeometry>
        </mxCell>
        <mxCell id="745T6tJbFyd0ASZvF1Uq-186" value="Invalid" style="edgeLabel;html=1;align=center;verticalAlign=middle;resizable=0;points=[];" vertex="1" connectable="0" parent="745T6tJbFyd0ASZvF1Uq-121">
          <mxGeometry x="-0.3318" y="-1" relative="1" as="geometry">
            <mxPoint as="offset" />
          </mxGeometry>
        </mxCell>
        <mxCell id="745T6tJbFyd0ASZvF1Uq-151" style="edgeStyle=orthogonalEdgeStyle;rounded=0;orthogonalLoop=1;jettySize=auto;html=1;exitX=0.5;exitY=1;exitDx=0;exitDy=0;entryX=0;entryY=0.5;entryDx=0;entryDy=0;" edge="1" parent="2" source="745T6tJbFyd0ASZvF1Uq-122" target="745T6tJbFyd0ASZvF1Uq-127">
          <mxGeometry relative="1" as="geometry">
            <Array as="points">
              <mxPoint x="255" y="680" />
              <mxPoint x="370" y="680" />
              <mxPoint x="370" y="223" />
            </Array>
          </mxGeometry>
        </mxCell>
        <mxCell id="745T6tJbFyd0ASZvF1Uq-194" value="Valid" style="edgeLabel;html=1;align=center;verticalAlign=middle;resizable=0;points=[];" vertex="1" connectable="0" parent="745T6tJbFyd0ASZvF1Uq-151">
          <mxGeometry x="-0.7801" relative="1" as="geometry">
            <mxPoint as="offset" />
          </mxGeometry>
        </mxCell>
        <mxCell id="745T6tJbFyd0ASZvF1Uq-122" value="" style="rhombus;whiteSpace=wrap;html=1;" vertex="1" parent="2">
          <mxGeometry x="241.25" y="634.38" width="27.5" height="25.62" as="geometry" />
        </mxCell>
        <mxCell id="745T6tJbFyd0ASZvF1Uq-119" value="" style="edgeStyle=orthogonalEdgeStyle;rounded=0;orthogonalLoop=1;jettySize=auto;html=1;" edge="1" parent="2" source="745T6tJbFyd0ASZvF1Uq-120" target="745T6tJbFyd0ASZvF1Uq-122">
          <mxGeometry relative="1" as="geometry" />
        </mxCell>
        <mxCell id="745T6tJbFyd0ASZvF1Uq-127" value="Age" style="rounded=1;" vertex="1" parent="2">
          <mxGeometry x="405" y="210" width="80" height="25" as="geometry" />
        </mxCell>
        <mxCell id="745T6tJbFyd0ASZvF1Uq-128" style="edgeStyle=orthogonalEdgeStyle;rounded=0;orthogonalLoop=1;jettySize=auto;html=1;exitX=1;exitY=0.5;exitDx=0;exitDy=0;entryX=1;entryY=0.5;entryDx=0;entryDy=0;" edge="1" parent="2" source="745T6tJbFyd0ASZvF1Uq-129" target="745T6tJbFyd0ASZvF1Uq-127">
          <mxGeometry relative="1" as="geometry">
            <Array as="points">
              <mxPoint x="500" y="285" />
              <mxPoint x="500" y="223" />
            </Array>
          </mxGeometry>
        </mxCell>
        <mxCell id="745T6tJbFyd0ASZvF1Uq-187" value="Invalid" style="edgeLabel;html=1;align=center;verticalAlign=middle;resizable=0;points=[];" vertex="1" connectable="0" parent="745T6tJbFyd0ASZvF1Uq-128">
          <mxGeometry x="-0.3053" y="-1" relative="1" as="geometry">
            <mxPoint y="1" as="offset" />
          </mxGeometry>
        </mxCell>
        <mxCell id="745T6tJbFyd0ASZvF1Uq-129" value="" style="rhombus;whiteSpace=wrap;html=1;" vertex="1" parent="2">
          <mxGeometry x="431.25" y="274.38" width="27.5" height="21.25" as="geometry" />
        </mxCell>
        <mxCell id="745T6tJbFyd0ASZvF1Uq-126" value="" style="edgeStyle=orthogonalEdgeStyle;rounded=0;orthogonalLoop=1;jettySize=auto;html=1;" edge="1" parent="2" source="745T6tJbFyd0ASZvF1Uq-127" target="745T6tJbFyd0ASZvF1Uq-129">
          <mxGeometry relative="1" as="geometry" />
        </mxCell>
        <mxCell id="745T6tJbFyd0ASZvF1Uq-130" value="" style="edgeStyle=orthogonalEdgeStyle;rounded=0;orthogonalLoop=1;jettySize=auto;html=1;" edge="1" parent="2" source="745T6tJbFyd0ASZvF1Uq-129">
          <mxGeometry relative="1" as="geometry">
            <mxPoint x="595" y="376" as="sourcePoint" />
            <mxPoint x="445.1" y="333" as="targetPoint" />
            <Array as="points">
              <mxPoint x="445" y="314" />
              <mxPoint x="445" y="314" />
            </Array>
          </mxGeometry>
        </mxCell>
        <mxCell id="745T6tJbFyd0ASZvF1Uq-195" value="Valid" style="edgeLabel;html=1;align=center;verticalAlign=middle;resizable=0;points=[];" vertex="1" connectable="0" parent="745T6tJbFyd0ASZvF1Uq-130">
          <mxGeometry x="-0.0682" y="1" relative="1" as="geometry">
            <mxPoint as="offset" />
          </mxGeometry>
        </mxCell>
        <mxCell id="745T6tJbFyd0ASZvF1Uq-134" value="Phone" style="rounded=1;" vertex="1" parent="2">
          <mxGeometry x="405" y="330" width="80" height="25" as="geometry" />
        </mxCell>
        <mxCell id="745T6tJbFyd0ASZvF1Uq-135" style="edgeStyle=orthogonalEdgeStyle;rounded=0;orthogonalLoop=1;jettySize=auto;html=1;exitX=1;exitY=0.5;exitDx=0;exitDy=0;entryX=1;entryY=0.5;entryDx=0;entryDy=0;" edge="1" parent="2" source="745T6tJbFyd0ASZvF1Uq-136" target="745T6tJbFyd0ASZvF1Uq-134">
          <mxGeometry relative="1" as="geometry">
            <Array as="points">
              <mxPoint x="500" y="405" />
              <mxPoint x="500" y="343" />
            </Array>
          </mxGeometry>
        </mxCell>
        <mxCell id="745T6tJbFyd0ASZvF1Uq-188" value="Invalid" style="edgeLabel;html=1;align=center;verticalAlign=middle;resizable=0;points=[];" vertex="1" connectable="0" parent="745T6tJbFyd0ASZvF1Uq-135">
          <mxGeometry x="-0.3221" y="-2" relative="1" as="geometry">
            <mxPoint as="offset" />
          </mxGeometry>
        </mxCell>
        <mxCell id="745T6tJbFyd0ASZvF1Uq-136" value="" style="rhombus;whiteSpace=wrap;html=1;" vertex="1" parent="2">
          <mxGeometry x="431.25" y="394.38" width="27.5" height="21.25" as="geometry" />
        </mxCell>
        <mxCell id="745T6tJbFyd0ASZvF1Uq-133" value="" style="edgeStyle=orthogonalEdgeStyle;rounded=0;orthogonalLoop=1;jettySize=auto;html=1;" edge="1" parent="2" source="745T6tJbFyd0ASZvF1Uq-134" target="745T6tJbFyd0ASZvF1Uq-136">
          <mxGeometry relative="1" as="geometry" />
        </mxCell>
        <mxCell id="745T6tJbFyd0ASZvF1Uq-137" value="" style="edgeStyle=orthogonalEdgeStyle;rounded=0;orthogonalLoop=1;jettySize=auto;html=1;" edge="1" parent="2" source="745T6tJbFyd0ASZvF1Uq-136">
          <mxGeometry relative="1" as="geometry">
            <mxPoint x="595" y="496" as="sourcePoint" />
            <mxPoint x="445.1" y="453" as="targetPoint" />
            <Array as="points">
              <mxPoint x="445" y="434" />
              <mxPoint x="445" y="434" />
            </Array>
          </mxGeometry>
        </mxCell>
        <mxCell id="745T6tJbFyd0ASZvF1Uq-196" value="Valid" style="edgeLabel;html=1;align=center;verticalAlign=middle;resizable=0;points=[];" vertex="1" connectable="0" parent="745T6tJbFyd0ASZvF1Uq-137">
          <mxGeometry x="-0.0148" y="1" relative="1" as="geometry">
            <mxPoint as="offset" />
          </mxGeometry>
        </mxCell>
        <mxCell id="745T6tJbFyd0ASZvF1Uq-141" value="Password" style="rounded=1;" vertex="1" parent="2">
          <mxGeometry x="405" y="450" width="80" height="25" as="geometry" />
        </mxCell>
        <mxCell id="745T6tJbFyd0ASZvF1Uq-142" style="edgeStyle=orthogonalEdgeStyle;rounded=0;orthogonalLoop=1;jettySize=auto;html=1;exitX=1;exitY=0.5;exitDx=0;exitDy=0;entryX=1;entryY=0.5;entryDx=0;entryDy=0;" edge="1" parent="2" source="745T6tJbFyd0ASZvF1Uq-143" target="745T6tJbFyd0ASZvF1Uq-141">
          <mxGeometry relative="1" as="geometry">
            <Array as="points">
              <mxPoint x="500" y="525" />
              <mxPoint x="500" y="463" />
            </Array>
          </mxGeometry>
        </mxCell>
        <mxCell id="745T6tJbFyd0ASZvF1Uq-189" value="Invalid" style="edgeLabel;html=1;align=center;verticalAlign=middle;resizable=0;points=[];" vertex="1" connectable="0" parent="745T6tJbFyd0ASZvF1Uq-142">
          <mxGeometry x="-0.3053" relative="1" as="geometry">
            <mxPoint as="offset" />
          </mxGeometry>
        </mxCell>
        <mxCell id="745T6tJbFyd0ASZvF1Uq-143" value="" style="rhombus;whiteSpace=wrap;html=1;" vertex="1" parent="2">
          <mxGeometry x="431.25" y="514.38" width="27.5" height="21.25" as="geometry" />
        </mxCell>
        <mxCell id="745T6tJbFyd0ASZvF1Uq-140" value="" style="edgeStyle=orthogonalEdgeStyle;rounded=0;orthogonalLoop=1;jettySize=auto;html=1;" edge="1" parent="2" source="745T6tJbFyd0ASZvF1Uq-141" target="745T6tJbFyd0ASZvF1Uq-143">
          <mxGeometry relative="1" as="geometry" />
        </mxCell>
        <mxCell id="745T6tJbFyd0ASZvF1Uq-144" value="" style="edgeStyle=orthogonalEdgeStyle;rounded=0;orthogonalLoop=1;jettySize=auto;html=1;" edge="1" parent="2" source="745T6tJbFyd0ASZvF1Uq-143">
          <mxGeometry relative="1" as="geometry">
            <mxPoint x="595" y="616" as="sourcePoint" />
            <mxPoint x="445.1" y="573" as="targetPoint" />
            <Array as="points">
              <mxPoint x="445" y="554" />
              <mxPoint x="445" y="554" />
            </Array>
          </mxGeometry>
        </mxCell>
        <mxCell id="745T6tJbFyd0ASZvF1Uq-197" value="Valid" style="edgeLabel;html=1;align=center;verticalAlign=middle;resizable=0;points=[];" vertex="1" connectable="0" parent="745T6tJbFyd0ASZvF1Uq-144">
          <mxGeometry x="-0.1216" y="1" relative="1" as="geometry">
            <mxPoint as="offset" />
          </mxGeometry>
        </mxCell>
        <mxCell id="745T6tJbFyd0ASZvF1Uq-153" value="Confirm password&#xa;2nd time" style="rounded=1;" vertex="1" parent="2">
          <mxGeometry x="400" y="570" width="100" height="40" as="geometry" />
        </mxCell>
        <mxCell id="745T6tJbFyd0ASZvF1Uq-164" style="edgeStyle=orthogonalEdgeStyle;rounded=0;orthogonalLoop=1;jettySize=auto;html=1;exitX=1;exitY=0.5;exitDx=0;exitDy=0;entryX=1;entryY=0.5;entryDx=0;entryDy=0;" edge="1" parent="2" source="745T6tJbFyd0ASZvF1Uq-155" target="745T6tJbFyd0ASZvF1Uq-153">
          <mxGeometry relative="1" as="geometry" />
        </mxCell>
        <mxCell id="745T6tJbFyd0ASZvF1Uq-190" value="Invalid" style="edgeLabel;html=1;align=center;verticalAlign=middle;resizable=0;points=[];" vertex="1" connectable="0" parent="745T6tJbFyd0ASZvF1Uq-164">
          <mxGeometry x="-0.145" y="-3" relative="1" as="geometry">
            <mxPoint as="offset" />
          </mxGeometry>
        </mxCell>
        <mxCell id="745T6tJbFyd0ASZvF1Uq-177" style="edgeStyle=orthogonalEdgeStyle;rounded=0;orthogonalLoop=1;jettySize=auto;html=1;entryX=0;entryY=0.75;entryDx=0;entryDy=0;" edge="1" parent="2" source="745T6tJbFyd0ASZvF1Uq-155" target="745T6tJbFyd0ASZvF1Uq-171">
          <mxGeometry relative="1" as="geometry">
            <Array as="points">
              <mxPoint x="445" y="680" />
              <mxPoint x="560" y="680" />
              <mxPoint x="560" y="240" />
            </Array>
          </mxGeometry>
        </mxCell>
        <mxCell id="745T6tJbFyd0ASZvF1Uq-198" value="Valid" style="edgeLabel;html=1;align=center;verticalAlign=middle;resizable=0;points=[];" vertex="1" connectable="0" parent="745T6tJbFyd0ASZvF1Uq-177">
          <mxGeometry x="-0.6785" y="1" relative="1" as="geometry">
            <mxPoint as="offset" />
          </mxGeometry>
        </mxCell>
        <mxCell id="745T6tJbFyd0ASZvF1Uq-155" value="" style="rhombus;whiteSpace=wrap;html=1;" vertex="1" parent="2">
          <mxGeometry x="431.25" y="634.38" width="27.5" height="21.25" as="geometry" />
        </mxCell>
        <mxCell id="745T6tJbFyd0ASZvF1Uq-152" value="" style="edgeStyle=orthogonalEdgeStyle;rounded=0;orthogonalLoop=1;jettySize=auto;html=1;" edge="1" parent="2" source="745T6tJbFyd0ASZvF1Uq-153" target="745T6tJbFyd0ASZvF1Uq-155">
          <mxGeometry relative="1" as="geometry">
            <Array as="points">
              <mxPoint x="445" y="620" />
              <mxPoint x="445" y="620" />
            </Array>
          </mxGeometry>
        </mxCell>
        <mxCell id="745T6tJbFyd0ASZvF1Uq-171" value="Confirm password&#xa;3rd time" style="rounded=1;" vertex="1" parent="2">
          <mxGeometry x="580" y="210" width="100" height="40" as="geometry" />
        </mxCell>
        <mxCell id="745T6tJbFyd0ASZvF1Uq-172" style="edgeStyle=orthogonalEdgeStyle;rounded=0;orthogonalLoop=1;jettySize=auto;html=1;exitX=1;exitY=0.5;exitDx=0;exitDy=0;entryX=1;entryY=0.5;entryDx=0;entryDy=0;" edge="1" parent="2" source="745T6tJbFyd0ASZvF1Uq-173" target="745T6tJbFyd0ASZvF1Uq-171">
          <mxGeometry relative="1" as="geometry" />
        </mxCell>
        <mxCell id="745T6tJbFyd0ASZvF1Uq-200" value="Invalid" style="edgeLabel;html=1;align=center;verticalAlign=middle;resizable=0;points=[];" vertex="1" connectable="0" parent="745T6tJbFyd0ASZvF1Uq-172">
          <mxGeometry x="-0.1009" relative="1" as="geometry">
            <mxPoint as="offset" />
          </mxGeometry>
        </mxCell>
        <mxCell id="745T6tJbFyd0ASZvF1Uq-173" value="" style="rhombus;whiteSpace=wrap;html=1;" vertex="1" parent="2">
          <mxGeometry x="611.25" y="274.38" width="27.5" height="21.25" as="geometry" />
        </mxCell>
        <mxCell id="745T6tJbFyd0ASZvF1Uq-174" value="" style="edgeStyle=orthogonalEdgeStyle;rounded=0;orthogonalLoop=1;jettySize=auto;html=1;" edge="1" parent="2" source="745T6tJbFyd0ASZvF1Uq-171" target="745T6tJbFyd0ASZvF1Uq-173">
          <mxGeometry relative="1" as="geometry">
            <Array as="points">
              <mxPoint x="625" y="260" />
              <mxPoint x="625" y="260" />
            </Array>
          </mxGeometry>
        </mxCell>
        <mxCell id="745T6tJbFyd0ASZvF1Uq-175" value="" style="edgeStyle=orthogonalEdgeStyle;rounded=0;orthogonalLoop=1;jettySize=auto;html=1;" edge="1" parent="2" source="745T6tJbFyd0ASZvF1Uq-173">
          <mxGeometry relative="1" as="geometry">
            <mxPoint x="775" y="376" as="sourcePoint" />
            <mxPoint x="625.1" y="333" as="targetPoint" />
            <Array as="points">
              <mxPoint x="625" y="314" />
              <mxPoint x="625" y="314" />
            </Array>
          </mxGeometry>
        </mxCell>
        <mxCell id="745T6tJbFyd0ASZvF1Uq-199" value="Valid" style="edgeLabel;html=1;align=center;verticalAlign=middle;resizable=0;points=[];" vertex="1" connectable="0" parent="745T6tJbFyd0ASZvF1Uq-175">
          <mxGeometry x="-0.175" relative="1" as="geometry">
            <mxPoint as="offset" />
          </mxGeometry>
        </mxCell>
        <mxCell id="745T6tJbFyd0ASZvF1Uq-181" style="edgeStyle=orthogonalEdgeStyle;rounded=0;orthogonalLoop=1;jettySize=auto;html=1;entryX=0.75;entryY=0;entryDx=0;entryDy=0;" edge="1" parent="2" source="745T6tJbFyd0ASZvF1Uq-180" target="7">
          <mxGeometry relative="1" as="geometry">
            <Array as="points">
              <mxPoint x="730" y="352" />
              <mxPoint x="730" y="90" />
              <mxPoint x="143" y="90" />
            </Array>
          </mxGeometry>
        </mxCell>
        <mxCell id="745T6tJbFyd0ASZvF1Uq-180" value="Store Username &amp;amp; Password in List" style="rounded=0;whiteSpace=wrap;html=1;" vertex="1" parent="2">
          <mxGeometry x="580" y="334.38" width="110" height="35.62" as="geometry" />
        </mxCell>
        <mxCell id="745T6tJbFyd0ASZvF1Uq-411" value="" style="ellipse;html=1;shape=endState;fillColor=#000000;strokeColor=#ff0000;" vertex="1" parent="2">
          <mxGeometry x="150" y="490" width="30" height="30" as="geometry" />
        </mxCell>
        <mxCell id="745T6tJbFyd0ASZvF1Uq-201" value="Login" style="swimlane;whiteSpace=wrap" vertex="1" parent="1">
          <mxGeometry x="910" y="70" width="250" height="1030" as="geometry" />
        </mxCell>
        <mxCell id="745T6tJbFyd0ASZvF1Uq-284" value="" style="edgeStyle=orthogonalEdgeStyle;rounded=0;orthogonalLoop=1;jettySize=auto;html=1;" edge="1" parent="745T6tJbFyd0ASZvF1Uq-201" source="8" target="745T6tJbFyd0ASZvF1Uq-281">
          <mxGeometry relative="1" as="geometry" />
        </mxCell>
        <mxCell id="8" value="Login" style="rounded=1;" parent="745T6tJbFyd0ASZvF1Uq-201" vertex="1">
          <mxGeometry x="30" y="110" width="110" height="50" as="geometry" />
        </mxCell>
        <mxCell id="745T6tJbFyd0ASZvF1Uq-285" value="" style="edgeStyle=orthogonalEdgeStyle;rounded=0;orthogonalLoop=1;jettySize=auto;html=1;" edge="1" parent="745T6tJbFyd0ASZvF1Uq-201" source="745T6tJbFyd0ASZvF1Uq-281" target="745T6tJbFyd0ASZvF1Uq-283">
          <mxGeometry relative="1" as="geometry" />
        </mxCell>
        <mxCell id="745T6tJbFyd0ASZvF1Uq-281" value="Ask username" style="rounded=1;" vertex="1" parent="745T6tJbFyd0ASZvF1Uq-201">
          <mxGeometry x="30" y="210" width="110" height="50" as="geometry" />
        </mxCell>
        <mxCell id="745T6tJbFyd0ASZvF1Uq-289" value="" style="edgeStyle=orthogonalEdgeStyle;rounded=0;orthogonalLoop=1;jettySize=auto;html=1;" edge="1" parent="745T6tJbFyd0ASZvF1Uq-201" source="745T6tJbFyd0ASZvF1Uq-283" target="745T6tJbFyd0ASZvF1Uq-288">
          <mxGeometry relative="1" as="geometry" />
        </mxCell>
        <mxCell id="745T6tJbFyd0ASZvF1Uq-283" value="Ask password" style="rounded=1;" vertex="1" parent="745T6tJbFyd0ASZvF1Uq-201">
          <mxGeometry x="30" y="310" width="110" height="50" as="geometry" />
        </mxCell>
        <mxCell id="745T6tJbFyd0ASZvF1Uq-290" style="edgeStyle=orthogonalEdgeStyle;rounded=0;orthogonalLoop=1;jettySize=auto;html=1;entryX=1;entryY=0.5;entryDx=0;entryDy=0;" edge="1" parent="745T6tJbFyd0ASZvF1Uq-201" source="745T6tJbFyd0ASZvF1Uq-288" target="745T6tJbFyd0ASZvF1Uq-281">
          <mxGeometry relative="1" as="geometry">
            <Array as="points">
              <mxPoint x="160" y="431" />
              <mxPoint x="160" y="235" />
            </Array>
          </mxGeometry>
        </mxCell>
        <mxCell id="745T6tJbFyd0ASZvF1Uq-293" value="Invalid" style="edgeLabel;html=1;align=center;verticalAlign=middle;resizable=0;points=[];" vertex="1" connectable="0" parent="745T6tJbFyd0ASZvF1Uq-290">
          <mxGeometry x="-0.5788" relative="1" as="geometry">
            <mxPoint as="offset" />
          </mxGeometry>
        </mxCell>
        <mxCell id="745T6tJbFyd0ASZvF1Uq-400" style="edgeStyle=orthogonalEdgeStyle;rounded=0;orthogonalLoop=1;jettySize=auto;html=1;entryX=0.173;entryY=-0.06;entryDx=0;entryDy=0;entryPerimeter=0;" edge="1" parent="745T6tJbFyd0ASZvF1Uq-201" source="745T6tJbFyd0ASZvF1Uq-288" target="745T6tJbFyd0ASZvF1Uq-395">
          <mxGeometry relative="1" as="geometry">
            <Array as="points">
              <mxPoint x="49" y="431" />
            </Array>
          </mxGeometry>
        </mxCell>
        <mxCell id="745T6tJbFyd0ASZvF1Uq-410" value="3 times max" style="edgeLabel;html=1;align=center;verticalAlign=middle;resizable=0;points=[];" vertex="1" connectable="0" parent="745T6tJbFyd0ASZvF1Uq-400">
          <mxGeometry x="0.5112" relative="1" as="geometry">
            <mxPoint as="offset" />
          </mxGeometry>
        </mxCell>
        <mxCell id="745T6tJbFyd0ASZvF1Uq-288" value="" style="rhombus;whiteSpace=wrap;html=1;" vertex="1" parent="745T6tJbFyd0ASZvF1Uq-201">
          <mxGeometry x="71.25" y="420" width="27.5" height="21.25" as="geometry" />
        </mxCell>
        <mxCell id="745T6tJbFyd0ASZvF1Uq-401" value="" style="edgeStyle=orthogonalEdgeStyle;rounded=0;orthogonalLoop=1;jettySize=auto;html=1;" edge="1" parent="745T6tJbFyd0ASZvF1Uq-201" source="745T6tJbFyd0ASZvF1Uq-395" target="745T6tJbFyd0ASZvF1Uq-399">
          <mxGeometry relative="1" as="geometry" />
        </mxCell>
        <mxCell id="745T6tJbFyd0ASZvF1Uq-395" value="Invalid Login" style="rounded=1;" vertex="1" parent="745T6tJbFyd0ASZvF1Uq-201">
          <mxGeometry x="30" y="530" width="110" height="50" as="geometry" />
        </mxCell>
        <mxCell id="745T6tJbFyd0ASZvF1Uq-402" style="edgeStyle=orthogonalEdgeStyle;rounded=0;orthogonalLoop=1;jettySize=auto;html=1;entryX=0;entryY=0.75;entryDx=0;entryDy=0;" edge="1" parent="745T6tJbFyd0ASZvF1Uq-201" source="745T6tJbFyd0ASZvF1Uq-399" target="8">
          <mxGeometry relative="1" as="geometry">
            <Array as="points">
              <mxPoint x="10" y="651" />
              <mxPoint x="10" y="148" />
            </Array>
          </mxGeometry>
        </mxCell>
        <mxCell id="745T6tJbFyd0ASZvF1Uq-403" value="User enters 1" style="edgeLabel;html=1;align=center;verticalAlign=middle;resizable=0;points=[];" vertex="1" connectable="0" parent="745T6tJbFyd0ASZvF1Uq-402">
          <mxGeometry x="-0.7901" relative="1" as="geometry">
            <mxPoint as="offset" />
          </mxGeometry>
        </mxCell>
        <mxCell id="745T6tJbFyd0ASZvF1Uq-404" style="edgeStyle=orthogonalEdgeStyle;rounded=0;orthogonalLoop=1;jettySize=auto;html=1;" edge="1" parent="745T6tJbFyd0ASZvF1Uq-201" source="745T6tJbFyd0ASZvF1Uq-399">
          <mxGeometry relative="1" as="geometry">
            <mxPoint x="-30" y="350" as="targetPoint" />
            <Array as="points">
              <mxPoint x="85" y="690" />
              <mxPoint x="-29" y="690" />
            </Array>
          </mxGeometry>
        </mxCell>
        <mxCell id="745T6tJbFyd0ASZvF1Uq-405" value="User enters 2" style="edgeLabel;html=1;align=center;verticalAlign=middle;resizable=0;points=[];" vertex="1" connectable="0" parent="745T6tJbFyd0ASZvF1Uq-404">
          <mxGeometry x="-0.6524" y="1" relative="1" as="geometry">
            <mxPoint as="offset" />
          </mxGeometry>
        </mxCell>
        <mxCell id="745T6tJbFyd0ASZvF1Uq-406" style="edgeStyle=orthogonalEdgeStyle;rounded=0;orthogonalLoop=1;jettySize=auto;html=1;" edge="1" parent="745T6tJbFyd0ASZvF1Uq-201" source="745T6tJbFyd0ASZvF1Uq-399">
          <mxGeometry relative="1" as="geometry">
            <mxPoint x="190" y="740" as="targetPoint" />
          </mxGeometry>
        </mxCell>
        <mxCell id="745T6tJbFyd0ASZvF1Uq-399" value="" style="rhombus;whiteSpace=wrap;html=1;" vertex="1" parent="745T6tJbFyd0ASZvF1Uq-201">
          <mxGeometry x="71.25" y="640" width="27.5" height="21.25" as="geometry" />
        </mxCell>
        <mxCell id="745T6tJbFyd0ASZvF1Uq-277" style="edgeStyle=orthogonalEdgeStyle;rounded=0;orthogonalLoop=1;jettySize=auto;html=1;entryX=0;entryY=0.5;entryDx=0;entryDy=0;" edge="1" parent="1" source="7" target="8">
          <mxGeometry relative="1" as="geometry" />
        </mxCell>
        <mxCell id="745T6tJbFyd0ASZvF1Uq-407" value="User enters 1" style="edgeLabel;html=1;align=center;verticalAlign=middle;resizable=0;points=[];" vertex="1" connectable="0" parent="745T6tJbFyd0ASZvF1Uq-277">
          <mxGeometry x="-0.3968" y="-1" relative="1" as="geometry">
            <mxPoint as="offset" />
          </mxGeometry>
        </mxCell>
        <mxCell id="745T6tJbFyd0ASZvF1Uq-279" value="Welcome menu / Deposit / Withdrawal / Balance" style="swimlane;whiteSpace=wrap" vertex="1" parent="1">
          <mxGeometry x="1160" y="70" width="980" height="1030" as="geometry" />
        </mxCell>
        <mxCell id="745T6tJbFyd0ASZvF1Uq-313" value="" style="edgeStyle=orthogonalEdgeStyle;rounded=0;orthogonalLoop=1;jettySize=auto;html=1;" edge="1" parent="745T6tJbFyd0ASZvF1Uq-279" source="745T6tJbFyd0ASZvF1Uq-280" target="745T6tJbFyd0ASZvF1Uq-296">
          <mxGeometry relative="1" as="geometry" />
        </mxCell>
        <mxCell id="745T6tJbFyd0ASZvF1Uq-383" style="edgeStyle=orthogonalEdgeStyle;rounded=0;orthogonalLoop=1;jettySize=auto;html=1;" edge="1" parent="745T6tJbFyd0ASZvF1Uq-279" source="745T6tJbFyd0ASZvF1Uq-280">
          <mxGeometry relative="1" as="geometry">
            <mxPoint x="560" y="260" as="targetPoint" />
            <Array as="points">
              <mxPoint x="85" y="100" />
              <mxPoint x="561" y="100" />
            </Array>
          </mxGeometry>
        </mxCell>
        <mxCell id="745T6tJbFyd0ASZvF1Uq-390" style="edgeStyle=orthogonalEdgeStyle;rounded=0;orthogonalLoop=1;jettySize=auto;html=1;entryX=0.5;entryY=0;entryDx=0;entryDy=0;" edge="1" parent="745T6tJbFyd0ASZvF1Uq-279" source="745T6tJbFyd0ASZvF1Uq-280" target="745T6tJbFyd0ASZvF1Uq-388">
          <mxGeometry relative="1" as="geometry">
            <Array as="points">
              <mxPoint x="70" y="90" />
              <mxPoint x="845" y="90" />
            </Array>
          </mxGeometry>
        </mxCell>
        <mxCell id="745T6tJbFyd0ASZvF1Uq-280" value="Welcome Menu" style="rounded=1;" vertex="1" parent="745T6tJbFyd0ASZvF1Uq-279">
          <mxGeometry x="30" y="110" width="110" height="50" as="geometry" />
        </mxCell>
        <mxCell id="745T6tJbFyd0ASZvF1Uq-300" value="" style="edgeStyle=orthogonalEdgeStyle;rounded=0;orthogonalLoop=1;jettySize=auto;html=1;" edge="1" parent="745T6tJbFyd0ASZvF1Uq-279" source="745T6tJbFyd0ASZvF1Uq-296" target="745T6tJbFyd0ASZvF1Uq-299">
          <mxGeometry relative="1" as="geometry" />
        </mxCell>
        <mxCell id="745T6tJbFyd0ASZvF1Uq-296" value="Deposit" style="rounded=1;" vertex="1" parent="745T6tJbFyd0ASZvF1Uq-279">
          <mxGeometry x="30" y="260.01" width="110" height="50" as="geometry" />
        </mxCell>
        <mxCell id="745T6tJbFyd0ASZvF1Uq-302" value="" style="edgeStyle=orthogonalEdgeStyle;rounded=0;orthogonalLoop=1;jettySize=auto;html=1;" edge="1" parent="745T6tJbFyd0ASZvF1Uq-279" source="745T6tJbFyd0ASZvF1Uq-299" target="745T6tJbFyd0ASZvF1Uq-301">
          <mxGeometry relative="1" as="geometry" />
        </mxCell>
        <mxCell id="745T6tJbFyd0ASZvF1Uq-299" value="Enter deposit" style="rounded=1;" vertex="1" parent="745T6tJbFyd0ASZvF1Uq-279">
          <mxGeometry x="30" y="360" width="110" height="50" as="geometry" />
        </mxCell>
        <mxCell id="745T6tJbFyd0ASZvF1Uq-303" style="edgeStyle=orthogonalEdgeStyle;rounded=0;orthogonalLoop=1;jettySize=auto;html=1;entryX=1;entryY=0.5;entryDx=0;entryDy=0;" edge="1" parent="745T6tJbFyd0ASZvF1Uq-279" source="745T6tJbFyd0ASZvF1Uq-301" target="745T6tJbFyd0ASZvF1Uq-299">
          <mxGeometry relative="1" as="geometry">
            <Array as="points">
              <mxPoint x="160" y="501" />
              <mxPoint x="160" y="385" />
            </Array>
          </mxGeometry>
        </mxCell>
        <mxCell id="745T6tJbFyd0ASZvF1Uq-304" value="Invalid" style="edgeLabel;html=1;align=center;verticalAlign=middle;resizable=0;points=[];" vertex="1" connectable="0" parent="745T6tJbFyd0ASZvF1Uq-303">
          <mxGeometry x="-0.2315" y="-1" relative="1" as="geometry">
            <mxPoint as="offset" />
          </mxGeometry>
        </mxCell>
        <mxCell id="745T6tJbFyd0ASZvF1Uq-332" value="" style="edgeStyle=orthogonalEdgeStyle;rounded=0;orthogonalLoop=1;jettySize=auto;html=1;" edge="1" parent="745T6tJbFyd0ASZvF1Uq-279" source="745T6tJbFyd0ASZvF1Uq-301" target="745T6tJbFyd0ASZvF1Uq-321">
          <mxGeometry relative="1" as="geometry" />
        </mxCell>
        <mxCell id="745T6tJbFyd0ASZvF1Uq-392" style="edgeStyle=orthogonalEdgeStyle;rounded=0;orthogonalLoop=1;jettySize=auto;html=1;" edge="1" parent="745T6tJbFyd0ASZvF1Uq-279" source="745T6tJbFyd0ASZvF1Uq-301">
          <mxGeometry relative="1" as="geometry">
            <mxPoint x="-280" y="90" as="targetPoint" />
            <Array as="points">
              <mxPoint x="-39" y="501" />
            </Array>
          </mxGeometry>
        </mxCell>
        <mxCell id="745T6tJbFyd0ASZvF1Uq-393" value="3 times max" style="edgeLabel;html=1;align=center;verticalAlign=middle;resizable=0;points=[];" vertex="1" connectable="0" parent="745T6tJbFyd0ASZvF1Uq-392">
          <mxGeometry x="-0.713" y="-1" relative="1" as="geometry">
            <mxPoint as="offset" />
          </mxGeometry>
        </mxCell>
        <mxCell id="745T6tJbFyd0ASZvF1Uq-301" value="" style="rhombus;whiteSpace=wrap;html=1;" vertex="1" parent="745T6tJbFyd0ASZvF1Uq-279">
          <mxGeometry x="71.25" y="490" width="27.5" height="21.25" as="geometry" />
        </mxCell>
        <mxCell id="745T6tJbFyd0ASZvF1Uq-354" value="" style="edgeStyle=orthogonalEdgeStyle;rounded=0;orthogonalLoop=1;jettySize=auto;html=1;" edge="1" parent="745T6tJbFyd0ASZvF1Uq-279" source="745T6tJbFyd0ASZvF1Uq-305" target="745T6tJbFyd0ASZvF1Uq-353">
          <mxGeometry relative="1" as="geometry" />
        </mxCell>
        <mxCell id="745T6tJbFyd0ASZvF1Uq-305" value="Deposit Choice" style="rounded=1;" vertex="1" parent="745T6tJbFyd0ASZvF1Uq-279">
          <mxGeometry x="5" y="640" width="110" height="50" as="geometry" />
        </mxCell>
        <mxCell id="745T6tJbFyd0ASZvF1Uq-325" value="" style="edgeStyle=orthogonalEdgeStyle;rounded=0;orthogonalLoop=1;jettySize=auto;html=1;" edge="1" parent="745T6tJbFyd0ASZvF1Uq-279" source="745T6tJbFyd0ASZvF1Uq-321" target="745T6tJbFyd0ASZvF1Uq-305">
          <mxGeometry relative="1" as="geometry">
            <Array as="points">
              <mxPoint x="60" y="590" />
              <mxPoint x="60" y="590" />
            </Array>
          </mxGeometry>
        </mxCell>
        <mxCell id="745T6tJbFyd0ASZvF1Uq-331" style="edgeStyle=orthogonalEdgeStyle;rounded=0;orthogonalLoop=1;jettySize=auto;html=1;entryX=0.433;entryY=0.036;entryDx=0;entryDy=0;entryPerimeter=0;" edge="1" parent="745T6tJbFyd0ASZvF1Uq-279" source="745T6tJbFyd0ASZvF1Uq-321" target="745T6tJbFyd0ASZvF1Uq-328">
          <mxGeometry relative="1" as="geometry">
            <Array as="points">
              <mxPoint x="172" y="580" />
              <mxPoint x="172" y="580" />
            </Array>
          </mxGeometry>
        </mxCell>
        <mxCell id="745T6tJbFyd0ASZvF1Uq-321" value="" style="line;strokeWidth=4;html=1;perimeter=backbonePerimeter;points=[];outlineConnect=0;" vertex="1" parent="745T6tJbFyd0ASZvF1Uq-279">
          <mxGeometry x="5" y="550" width="245" height="10" as="geometry" />
        </mxCell>
        <mxCell id="745T6tJbFyd0ASZvF1Uq-328" value="Balance updated" style="rounded=0;whiteSpace=wrap;html=1;" vertex="1" parent="745T6tJbFyd0ASZvF1Uq-279">
          <mxGeometry x="120" y="640" width="120" height="50" as="geometry" />
        </mxCell>
        <mxCell id="745T6tJbFyd0ASZvF1Uq-355" style="edgeStyle=orthogonalEdgeStyle;rounded=0;orthogonalLoop=1;jettySize=auto;html=1;entryX=1;entryY=0.5;entryDx=0;entryDy=0;" edge="1" parent="745T6tJbFyd0ASZvF1Uq-279" source="745T6tJbFyd0ASZvF1Uq-353" target="745T6tJbFyd0ASZvF1Uq-296">
          <mxGeometry relative="1" as="geometry">
            <Array as="points">
              <mxPoint x="280" y="746" />
              <mxPoint x="280" y="285" />
            </Array>
          </mxGeometry>
        </mxCell>
        <mxCell id="745T6tJbFyd0ASZvF1Uq-359" value="User enters 1" style="edgeLabel;html=1;align=center;verticalAlign=middle;resizable=0;points=[];" vertex="1" connectable="0" parent="745T6tJbFyd0ASZvF1Uq-355">
          <mxGeometry x="-0.4911" relative="1" as="geometry">
            <mxPoint as="offset" />
          </mxGeometry>
        </mxCell>
        <mxCell id="745T6tJbFyd0ASZvF1Uq-357" style="edgeStyle=orthogonalEdgeStyle;rounded=0;orthogonalLoop=1;jettySize=auto;html=1;entryX=1;entryY=0.5;entryDx=0;entryDy=0;" edge="1" parent="745T6tJbFyd0ASZvF1Uq-279" source="745T6tJbFyd0ASZvF1Uq-353" target="745T6tJbFyd0ASZvF1Uq-280">
          <mxGeometry relative="1" as="geometry">
            <Array as="points">
              <mxPoint x="60" y="780" />
              <mxPoint x="320" y="780" />
              <mxPoint x="320" y="135" />
            </Array>
          </mxGeometry>
        </mxCell>
        <mxCell id="745T6tJbFyd0ASZvF1Uq-360" value="User enters 2" style="edgeLabel;html=1;align=center;verticalAlign=middle;resizable=0;points=[];" vertex="1" connectable="0" parent="745T6tJbFyd0ASZvF1Uq-357">
          <mxGeometry x="-0.4954" y="-1" relative="1" as="geometry">
            <mxPoint as="offset" />
          </mxGeometry>
        </mxCell>
        <mxCell id="745T6tJbFyd0ASZvF1Uq-353" value="" style="rhombus;whiteSpace=wrap;html=1;" vertex="1" parent="745T6tJbFyd0ASZvF1Uq-279">
          <mxGeometry x="46.25" y="735" width="27.5" height="21.25" as="geometry" />
        </mxCell>
        <mxCell id="745T6tJbFyd0ASZvF1Uq-364" value="Enter withdrawal" style="rounded=1;" vertex="1" parent="745T6tJbFyd0ASZvF1Uq-279">
          <mxGeometry x="500" y="360" width="110" height="50" as="geometry" />
        </mxCell>
        <mxCell id="745T6tJbFyd0ASZvF1Uq-365" style="edgeStyle=orthogonalEdgeStyle;rounded=0;orthogonalLoop=1;jettySize=auto;html=1;entryX=1;entryY=0.5;entryDx=0;entryDy=0;" edge="1" parent="745T6tJbFyd0ASZvF1Uq-279" source="745T6tJbFyd0ASZvF1Uq-368" target="745T6tJbFyd0ASZvF1Uq-364">
          <mxGeometry relative="1" as="geometry">
            <Array as="points">
              <mxPoint x="630" y="501" />
              <mxPoint x="630" y="385" />
            </Array>
          </mxGeometry>
        </mxCell>
        <mxCell id="745T6tJbFyd0ASZvF1Uq-366" value="Invalid" style="edgeLabel;html=1;align=center;verticalAlign=middle;resizable=0;points=[];" vertex="1" connectable="0" parent="745T6tJbFyd0ASZvF1Uq-365">
          <mxGeometry x="-0.2315" y="-1" relative="1" as="geometry">
            <mxPoint as="offset" />
          </mxGeometry>
        </mxCell>
        <mxCell id="745T6tJbFyd0ASZvF1Uq-367" value="" style="edgeStyle=orthogonalEdgeStyle;rounded=0;orthogonalLoop=1;jettySize=auto;html=1;" edge="1" parent="745T6tJbFyd0ASZvF1Uq-279" source="745T6tJbFyd0ASZvF1Uq-368">
          <mxGeometry relative="1" as="geometry">
            <mxPoint x="598" y="553" as="targetPoint" />
            <Array as="points">
              <mxPoint x="555" y="520" />
              <mxPoint x="599" y="520" />
            </Array>
          </mxGeometry>
        </mxCell>
        <mxCell id="745T6tJbFyd0ASZvF1Uq-394" style="edgeStyle=orthogonalEdgeStyle;rounded=0;orthogonalLoop=1;jettySize=auto;html=1;" edge="1" parent="745T6tJbFyd0ASZvF1Uq-279" source="745T6tJbFyd0ASZvF1Uq-368">
          <mxGeometry relative="1" as="geometry">
            <mxPoint x="-40" y="500.625" as="targetPoint" />
            <Array as="points">
              <mxPoint x="520" y="501" />
              <mxPoint x="520" y="520" />
              <mxPoint x="-40" y="520" />
            </Array>
          </mxGeometry>
        </mxCell>
        <mxCell id="745T6tJbFyd0ASZvF1Uq-368" value="" style="rhombus;whiteSpace=wrap;html=1;" vertex="1" parent="745T6tJbFyd0ASZvF1Uq-279">
          <mxGeometry x="541.25" y="490" width="27.5" height="21.25" as="geometry" />
        </mxCell>
        <mxCell id="745T6tJbFyd0ASZvF1Uq-363" value="" style="edgeStyle=orthogonalEdgeStyle;rounded=0;orthogonalLoop=1;jettySize=auto;html=1;" edge="1" parent="745T6tJbFyd0ASZvF1Uq-279" source="745T6tJbFyd0ASZvF1Uq-364" target="745T6tJbFyd0ASZvF1Uq-368">
          <mxGeometry relative="1" as="geometry" />
        </mxCell>
        <mxCell id="745T6tJbFyd0ASZvF1Uq-369" value="" style="edgeStyle=orthogonalEdgeStyle;rounded=0;orthogonalLoop=1;jettySize=auto;html=1;" edge="1" parent="745T6tJbFyd0ASZvF1Uq-279" target="745T6tJbFyd0ASZvF1Uq-375">
          <mxGeometry relative="1" as="geometry">
            <mxPoint x="530" y="690" as="sourcePoint" />
          </mxGeometry>
        </mxCell>
        <mxCell id="745T6tJbFyd0ASZvF1Uq-370" value="" style="edgeStyle=orthogonalEdgeStyle;rounded=0;orthogonalLoop=1;jettySize=auto;html=1;" edge="1" parent="745T6tJbFyd0ASZvF1Uq-279">
          <mxGeometry relative="1" as="geometry">
            <mxPoint x="530" y="556" as="sourcePoint" />
            <mxPoint x="530" y="640" as="targetPoint" />
            <Array as="points">
              <mxPoint x="530" y="590" />
              <mxPoint x="530" y="590" />
            </Array>
          </mxGeometry>
        </mxCell>
        <mxCell id="745T6tJbFyd0ASZvF1Uq-371" style="edgeStyle=orthogonalEdgeStyle;rounded=0;orthogonalLoop=1;jettySize=auto;html=1;entryX=0.433;entryY=0.036;entryDx=0;entryDy=0;entryPerimeter=0;" edge="1" parent="745T6tJbFyd0ASZvF1Uq-279" target="745T6tJbFyd0ASZvF1Uq-372">
          <mxGeometry relative="1" as="geometry">
            <mxPoint x="642" y="556" as="sourcePoint" />
            <Array as="points">
              <mxPoint x="642" y="580" />
              <mxPoint x="642" y="580" />
            </Array>
          </mxGeometry>
        </mxCell>
        <mxCell id="745T6tJbFyd0ASZvF1Uq-372" value="Balance updated" style="rounded=0;whiteSpace=wrap;html=1;" vertex="1" parent="745T6tJbFyd0ASZvF1Uq-279">
          <mxGeometry x="590" y="640" width="120" height="50" as="geometry" />
        </mxCell>
        <mxCell id="745T6tJbFyd0ASZvF1Uq-381" style="edgeStyle=orthogonalEdgeStyle;rounded=0;orthogonalLoop=1;jettySize=auto;html=1;entryX=1;entryY=0.5;entryDx=0;entryDy=0;" edge="1" parent="745T6tJbFyd0ASZvF1Uq-279" source="745T6tJbFyd0ASZvF1Uq-375" target="745T6tJbFyd0ASZvF1Uq-378">
          <mxGeometry relative="1" as="geometry">
            <Array as="points">
              <mxPoint x="750" y="746" />
              <mxPoint x="750" y="285" />
            </Array>
          </mxGeometry>
        </mxCell>
        <mxCell id="745T6tJbFyd0ASZvF1Uq-382" value="User enters 1" style="edgeLabel;html=1;align=center;verticalAlign=middle;resizable=0;points=[];" vertex="1" connectable="0" parent="745T6tJbFyd0ASZvF1Uq-381">
          <mxGeometry x="-0.4911" y="-1" relative="1" as="geometry">
            <mxPoint as="offset" />
          </mxGeometry>
        </mxCell>
        <mxCell id="745T6tJbFyd0ASZvF1Uq-386" style="edgeStyle=orthogonalEdgeStyle;rounded=0;orthogonalLoop=1;jettySize=auto;html=1;" edge="1" parent="745T6tJbFyd0ASZvF1Uq-279" source="745T6tJbFyd0ASZvF1Uq-375">
          <mxGeometry relative="1" as="geometry">
            <mxPoint x="20" y="745.625" as="targetPoint" />
            <Array as="points">
              <mxPoint x="530" y="880" />
              <mxPoint x="20" y="880" />
            </Array>
          </mxGeometry>
        </mxCell>
        <mxCell id="745T6tJbFyd0ASZvF1Uq-387" style="edgeStyle=orthogonalEdgeStyle;rounded=0;orthogonalLoop=1;jettySize=auto;html=1;" edge="1" parent="745T6tJbFyd0ASZvF1Uq-279" source="745T6tJbFyd0ASZvF1Uq-375">
          <mxGeometry relative="1" as="geometry">
            <mxPoint x="260" y="780" as="targetPoint" />
            <Array as="points">
              <mxPoint x="490" y="746" />
              <mxPoint x="490" y="800" />
              <mxPoint x="260" y="800" />
            </Array>
          </mxGeometry>
        </mxCell>
        <mxCell id="745T6tJbFyd0ASZvF1Uq-375" value="" style="rhombus;whiteSpace=wrap;html=1;" vertex="1" parent="745T6tJbFyd0ASZvF1Uq-279">
          <mxGeometry x="516.25" y="735" width="27.5" height="21.25" as="geometry" />
        </mxCell>
        <mxCell id="745T6tJbFyd0ASZvF1Uq-376" value="Withdrawal Choice" style="rounded=1;" vertex="1" parent="745T6tJbFyd0ASZvF1Uq-279">
          <mxGeometry x="475" y="640" width="110" height="50" as="geometry" />
        </mxCell>
        <mxCell id="745T6tJbFyd0ASZvF1Uq-377" value="" style="line;strokeWidth=4;html=1;perimeter=backbonePerimeter;points=[];outlineConnect=0;" vertex="1" parent="745T6tJbFyd0ASZvF1Uq-279">
          <mxGeometry x="465" y="550" width="245" height="10" as="geometry" />
        </mxCell>
        <mxCell id="745T6tJbFyd0ASZvF1Uq-380" value="" style="edgeStyle=orthogonalEdgeStyle;rounded=0;orthogonalLoop=1;jettySize=auto;html=1;" edge="1" parent="745T6tJbFyd0ASZvF1Uq-279" source="745T6tJbFyd0ASZvF1Uq-378" target="745T6tJbFyd0ASZvF1Uq-364">
          <mxGeometry relative="1" as="geometry" />
        </mxCell>
        <mxCell id="745T6tJbFyd0ASZvF1Uq-378" value="Withdraw" style="rounded=1;" vertex="1" parent="745T6tJbFyd0ASZvF1Uq-279">
          <mxGeometry x="500" y="260.01" width="110" height="50" as="geometry" />
        </mxCell>
        <mxCell id="745T6tJbFyd0ASZvF1Uq-414" value="" style="edgeStyle=orthogonalEdgeStyle;rounded=0;orthogonalLoop=1;jettySize=auto;html=1;" edge="1" parent="745T6tJbFyd0ASZvF1Uq-279" source="745T6tJbFyd0ASZvF1Uq-388" target="745T6tJbFyd0ASZvF1Uq-413">
          <mxGeometry relative="1" as="geometry" />
        </mxCell>
        <mxCell id="745T6tJbFyd0ASZvF1Uq-388" value="Balance" style="rounded=1;" vertex="1" parent="745T6tJbFyd0ASZvF1Uq-279">
          <mxGeometry x="790" y="110" width="110" height="50" as="geometry" />
        </mxCell>
        <mxCell id="745T6tJbFyd0ASZvF1Uq-416" style="edgeStyle=orthogonalEdgeStyle;rounded=0;orthogonalLoop=1;jettySize=auto;html=1;" edge="1" parent="745T6tJbFyd0ASZvF1Uq-279" source="745T6tJbFyd0ASZvF1Uq-413">
          <mxGeometry relative="1" as="geometry">
            <mxPoint x="320" y="225" as="targetPoint" />
          </mxGeometry>
        </mxCell>
        <mxCell id="745T6tJbFyd0ASZvF1Uq-413" value="Balance displayed" style="rounded=0;whiteSpace=wrap;html=1;" vertex="1" parent="745T6tJbFyd0ASZvF1Uq-279">
          <mxGeometry x="785" y="200" width="120" height="50" as="geometry" />
        </mxCell>
        <mxCell id="745T6tJbFyd0ASZvF1Uq-294" style="edgeStyle=orthogonalEdgeStyle;rounded=0;orthogonalLoop=1;jettySize=auto;html=1;entryX=0;entryY=0.5;entryDx=0;entryDy=0;" edge="1" parent="1" source="745T6tJbFyd0ASZvF1Uq-288" target="745T6tJbFyd0ASZvF1Uq-280">
          <mxGeometry relative="1" as="geometry">
            <Array as="points">
              <mxPoint x="995" y="550" />
              <mxPoint x="1099" y="550" />
              <mxPoint x="1099" y="205" />
            </Array>
          </mxGeometry>
        </mxCell>
        <mxCell id="745T6tJbFyd0ASZvF1Uq-295" value="Valid" style="edgeLabel;html=1;align=center;verticalAlign=middle;resizable=0;points=[];" vertex="1" connectable="0" parent="745T6tJbFyd0ASZvF1Uq-294">
          <mxGeometry x="-0.6243" y="-2" relative="1" as="geometry">
            <mxPoint as="offset" />
          </mxGeometry>
        </mxCell>
        <mxCell id="745T6tJbFyd0ASZvF1Uq-358" style="edgeStyle=orthogonalEdgeStyle;rounded=0;orthogonalLoop=1;jettySize=auto;html=1;entryX=0.25;entryY=1;entryDx=0;entryDy=0;" edge="1" parent="1" source="745T6tJbFyd0ASZvF1Uq-353" target="10">
          <mxGeometry relative="1" as="geometry" />
        </mxCell>
        <mxCell id="745T6tJbFyd0ASZvF1Uq-361" value="User enters 3" style="edgeLabel;html=1;align=center;verticalAlign=middle;resizable=0;points=[];" vertex="1" connectable="0" parent="745T6tJbFyd0ASZvF1Uq-358">
          <mxGeometry x="-0.8358" relative="1" as="geometry">
            <mxPoint as="offset" />
          </mxGeometry>
        </mxCell>
      </root>
    </mxGraphModel>
  </diagram>
</mxfile>
